<?xml version="1.0" standalone="no"?><!DOCTYPE svg PUBLIC "-//W3C//DTD SVG 1.1//EN" "http://www.w3.org/Graphics/SVG/1.1/DTD/svg11.dtd"><svg class="icon" width="200px" height="200.00px" viewBox="0 0 1024 1024" version="1.1" xmlns="http://www.w3.org/2000/svg"><path d="M470.016 284.672v-15.36h5.12v15.36h-3.072-2.048z" fill="#FFF5BA" /><path d="M477.184 285.696h-8.192v-18.432h8.192v18.432z m-5.12-3.072h3.072v-13.312h-3.072v13.312zM475.136 311.296V327.68h-5.12v-15.36h3.072s1.024-1.024 2.048-1.024z" fill="#FFF5BA" /><path d="M477.184 328.704h-8.192v-18.432h4.096c1.024 0 1.024-1.024 2.048-1.024h1.024v19.456z m-5.12-3.072h3.072v-13.312h-2.048v13.312zM450.56 316.416l11.264-11.264c1.024 1.024 2.048 3.072 4.096 4.096l-12.288 11.264-3.072-4.096z" fill="#FFF5BA" /><path d="M462.848 304.128l1.024 1.024c1.024 1.024 1.024 2.048 3.072 3.072l2.048 1.024-14.336 13.312-4.096-6.144 12.288-12.288z m-9.216 14.336l10.24-9.216c-1.024-1.024-1.024-2.048-2.048-2.048l-9.216 9.216 1.024 2.048zM480.256 286.72l11.264-11.264 4.096 4.096-11.264 11.264c-1.024-2.048-3.072-3.072-4.096-4.096z" fill="#FFF5BA" /><path d="M497.664 279.552l-13.312 13.312-1.024-2.048-3.072-3.072-1.024-1.024h-1.024l13.312-13.312 6.144 6.144z m-15.36 7.168c1.024 1.024 2.048 1.024 2.048 2.048l9.216-9.216-2.048-2.048-9.216 9.216z" fill="#FFF5BA" /><path d="M486.4 295.936H501.76v5.12h-15.36v-3.072-2.048z" fill="#FFF5BA" /><path d="M503.808 302.08h-18.432v-8.192h18.432v8.192z m-15.36-3.072H501.76V296.96h-13.312v2.048z" fill="#FFF5BA" /><path d="M443.392 295.936h15.36v6.144h-15.36v-6.144z" fill="#FFF5BA" /><path d="M460.8 303.104h-18.432v-9.216H460.8v9.216z m-15.36-3.072h13.312V296.96h-13.312v3.072z" fill="#FFF5BA" /><path d="M484.352 306.176l11.264 11.264-4.096 4.096-11.264-11.264c1.024-2.048 3.072-3.072 4.096-4.096z" fill="#FFF5BA" /><path d="M497.664 317.44l-6.144 6.144-13.312-13.312v-1.024c1.024-2.048 2.048-3.072 3.072-3.072l1.024-1.024 1.024-1.024 14.336 13.312z m-6.144 2.048l2.048-2.048-9.216-10.24-2.048 2.048 9.216 10.24z" fill="#FFF5BA" /><path d="M461.824 290.816L450.56 279.552l4.096-4.096 11.264 11.264c-2.048 1.024-4.096 2.048-4.096 4.096z" fill="#FFF5BA" /><path d="M467.968 286.72l-2.048 1.024c-2.048 1.024-3.072 2.048-3.072 3.072v3.072l-14.336-14.336 6.144-6.144 13.312 13.312z m-6.144 1.024l2.048-2.048-9.216-9.216-2.048 2.048 9.216 9.216z" fill="#FFF5BA" /><path d="M638.976 300.032c8.192 0 15.36-7.168 15.36-15.36v-71.68c0-8.192-7.168-15.36-15.36-15.36s-15.36 7.168-15.36 15.36v71.68c0 9.216 6.144 15.36 15.36 15.36z" fill="#B3E5FF" /><path d="M690.176 248.832c0-8.192-7.168-15.36-15.36-15.36h-71.68c-8.192 0-15.36 7.168-15.36 15.36s7.168 15.36 15.36 15.36h71.68c8.192 0 15.36-6.144 15.36-15.36z" fill="#B3E5FF" /><path d="M241.664 293.888m-25.6 0a25.6 25.6 0 1 0 51.2 0 25.6 25.6 0 1 0-51.2 0Z" fill="#FFF19A" /><path d="M118.784 350.208m-10.24 0a10.24 10.24 0 1 0 20.48 0 10.24 10.24 0 1 0-20.48 0Z" fill="#FFF19A" /><path d="M742.4 439.296m-15.36 0a15.36 15.36 0 1 0 30.72 0 15.36 15.36 0 1 0-30.72 0Z" fill="#FFD09D" /><path d="M839.68 331.776m-10.24 0a10.24 10.24 0 1 0 20.48 0 10.24 10.24 0 1 0-20.48 0Z" fill="#FFD09D" /><path d="M316.416 167.936m-46.08 0a46.08 46.08 0 1 0 92.16 0 46.08 46.08 0 1 0-92.16 0Z" fill="#FFD09D" /><path d="M316.416 167.936m-30.72 0a30.72 30.72 0 1 0 61.44 0 30.72 30.72 0 1 0-61.44 0Z" fill="#FFFFFF" /><path d="M648.192 451.584H355.328c-31.744 0-58.368 25.6-58.368 58.368v313.344c0 31.744 25.6 58.368 58.368 58.368h291.84c32.768 0 59.392-26.624 59.392-58.368V509.952c0-31.744-25.6-58.368-58.368-58.368zM686.08 822.272c0 21.504-17.408 38.912-38.912 38.912H356.352c-21.504 0-38.912-17.408-38.912-38.912V510.976c0-21.504 17.408-38.912 38.912-38.912h290.816c21.504 0 38.912 17.408 38.912 38.912v311.296z" fill="#474747" /><path d="M438.272 461.824v-2.048h-71.68v12.288h71.68zM402.432 568.32l35.84 34.816V472.064h-71.68v131.072z" fill="#474747" /><path d="M686.08 694.272H547.84v207.872h174.08V694.272z" fill="#FFFFFF" /><path d="M584.704 705.536v165.888c0 19.456 6.144 30.72 28.672 19.456l133.12-81.92c15.36-9.216 15.36-31.744 0-40.96l-133.12-81.92c-12.288-8.192-30.72-9.216-28.672 19.456z" fill="#2ECC71" /><path d="M598.016 900.096c-12.288 0-18.432-10.24-18.432-28.672V705.536c-1.024-10.24 1.024-19.456 6.144-24.576 7.168-7.168 19.456-7.168 30.72 0l133.12 81.92c9.216 5.12 14.336 14.336 14.336 24.576s-5.12 19.456-14.336 24.576l-133.12 81.92c-7.168 5.12-13.312 6.144-18.432 6.144z m1.024-214.016c-2.048 0-4.096 1.024-6.144 2.048-2.048 2.048-4.096 6.144-3.072 16.384V870.4c0 18.432 6.144 18.432 8.192 18.432 3.072 0 7.168-1.024 12.288-4.096l133.12-81.92c6.144-3.072 9.216-9.216 9.216-16.384s-3.072-12.288-9.216-16.384l-133.12-81.92c-4.096 0-8.192-2.048-11.264-2.048z" fill="#474747" /></svg>