<?xml version="1.0" standalone="no"?><!DOCTYPE svg PUBLIC "-//W3C//DTD SVG 1.1//EN" "http://www.w3.org/Graphics/SVG/1.1/DTD/svg11.dtd"><svg class="icon" width="200px" height="168.42px" viewBox="0 0 1216 1024" version="1.1" xmlns="http://www.w3.org/2000/svg"><path d="M209.231991 267.815238H1216.326947v522.445683H209.231991z" fill="#A8F0FA" /><path d="M209.231991 790.265672L1216.326947 905.336853v-115.071181z" fill="#4BA7D6" /><path d="M209.231991 1024v-207.374242L1216.326947 926.256727v97.743273z" fill="#FFE5B0" /><path d="M209.231991 750.169645l28.64545 18.335178h-28.64545z" fill="#85CC85" /><path d="M280.268336 767.355014l-25.205525-9.165213h-33.301702l16.116332 10.315022zM333.534904 767.397776h28.080048l37.805912-19.518247 74.476269 42.386143H359.320085z" fill="#78B878" /><path d="M280.268336 767.355014l36.665605-8.024907 40.10078 19.484988z" fill="#85CC85" /><path d="M209.231991 768.504823l71.036345-1.149809 63.9902 9.550067 50.582097 4.770282h63.956941l15.099559 8.590309H209.231991z" fill="#F2D9A6" /><path d="M209.231991 790.265672S992.408758 817.884846 1216.326947 844.392222v50.349283L209.231991 790.265672z" fill="#81C5E8" /><path d="M209.231991 873.536556s46.486496 150.463444 351.233411 150.463444H209.231991v-150.463444z" fill="#F2D9A6" /><path d="M473.018147 1024s223.205497-31.757536 267.644192-39.160026c158.996738-26.502624 294.27035 32.541497 230.541469 0-124.545228-63.600596-77.578853-81.17557 37.5731-81.17557 115.147201 0 207.550039 22.592323 207.550039 22.592323v97.743273H473.018147z" fill="#F2D9A6" /><path d="M209.231991 816.625758L1216.326947 926.256727v-51.56086l-1007.094956-84.430195z" fill="#F2D9A6" /><path d="M1216.326947 609.869182h-295.657722c-26.132024 0-47.512771-13.659922-47.512772-30.35591 0-16.700739 21.380747-30.360661 47.512772-30.36066H1216.326947" fill="#FFFFFF" /><path d="M209.231991 387.271848h311.669527c26.132024 0 47.512771 13.659922 47.512771 30.35591s-21.380747 30.35591-47.512771 30.355909H209.231991" fill="#FFFFFF" /><path d="M209.231991 267.815238H1050.032247v522.445683H209.231991z"  /><path d="M0 0h1017.581025v727.786378H0z" fill="#81D0E8" /><path d="M531.311566 489.419555v14.576919H0v258.48373h1017.581025v-273.060649z" fill="#FFE5B0" /><path d="M892.950274 472.191425c0 29.524436-23.162476 27.091782-67.073779 27.091782-43.901801 0-67.529902 2.432654-67.529902-27.091782 0-17.266141 38.399822-37.449566 62.065933-37.449567 26.103517 0 72.537748 26.00374 72.537748 37.449567z" fill="#85B385" /><path d="M0 488.379026h1017.581025v56.563954H0z" fill="#E6CE9E" /><path d="M644.833831 441.683474c0 56.179101-26.41235 51.546606-76.476557 51.546606-50.064207 0-77.0087 4.637246-77.0087-51.546606 0-32.85033 43.792521-71.245401 70.775024-71.245401 29.762 0 82.710232 49.470298 82.710233 71.245401z" fill="#85B385" /><path d="M157.300532 441.346133l25.766176-37.368794h106.081765l26.298319 38.751416z" fill="#B3A889" /><path d="M195.510303 441.559941l46.039875-62.417528 46.001866 63.32027z" fill="#B3A889" /><path d="M315.114202 467.644452l33.18292 17.988336v33.216178h-33.18292z" fill="#E4CBB4" /><path d="M348.297122 485.632788h33.216178l18.682022-18.682022-32.878838 0.693686zM419.751579 479.014258l12.970986 8.001151h44.286655l23.533075-16.605713h-63.667113z" fill="#E66C6C" /><path d="M500.542295 470.409696l47.051898 20.758329v27.680941H348.297122v-33.216178h33.216178l18.682022-18.682022 32.527243 20.064643h44.286655z" fill="#E4CBB4" /><path d="M348.297122 485.632788h33.216178v33.211427h-33.216178z" fill="#C9B39F" /><path d="M30.930814 350.55873c-10.942191 0-21.361742 2.204593-30.930814 6.110142v156.526074a81.617439 81.617439 0 0 0 30.930814 6.114894c115.265983 0 83.042822-37.782156 83.042822-84.382682-0.004751-46.595775-37.178744-84.368428-83.042822-84.368428z" fill="#B4CFB4" /><path d="M432.722565 487.015409h44.291406v31.828806h-44.291406z" fill="#C9B39F" /><path d="M558.66942 473.882879h16.605713v29.068314h-16.605713z" fill="#8B7256" /><path d="M202.974559 518.848966V441.726235l-45.674027-0.380102v77.502833z" fill="#DDDDDD" /><path d="M315.114202 442.662237v76.186729H202.974559V441.726235z" fill="#F7F7F7" /><path d="M241.550178 379.142413l-11.293785 0.441869-53.694183 62.274989h18.990854z" fill="#968D73" /><path d="M220.174183 456.075092h18.548986v20.853356H220.174183zM251.314053 456.075092h18.544235v20.853356h-18.544235zM282.634472 456.075092h18.544234v20.853356h-18.544234z" fill="#3F3F3F" /><path d="M393.429503 486.411997h25.709161v20.858107h-25.709161zM495.273129 486.411997h25.70916v20.858107h-25.70916z" fill="#3F3F3F" /><path d="M505.046506 482.344904h3.078827v30.992581h-3.078827z" fill="#E4CBB4" /><path d="M168.784369 456.075092h18.548986v20.853356h-18.548986z" fill="#3F3F3F" /><path d="M190.445442 467.763234c0 56.179101-26.41235 51.551357-76.476557 51.551357-50.064207 0-77.0087 4.632495-77.0087-51.551357 0-32.845579 43.78777-71.245401 70.775024-71.2454 29.762 0 82.710232 49.470298 82.710233 71.2454zM724.10889 466.618176c0 35.587066-17.289898 32.650776-50.068959 32.650777-32.769558 0-50.41105 2.936289-50.41105-32.650777 0-20.805843 28.659704-45.12763 46.334454-45.12763 19.480236 0 54.145554 31.334673 54.145555 45.12763z" fill="#85B385" /><path d="M796.727409 483.870064c0 16.819521-19.095383 15.432148-55.281109 15.432148-36.180975 0-55.665963 1.387373-55.665963-15.432148 0-9.830392 31.648257-21.323732 51.161752-21.323732 21.509032 0 59.78532 14.809731 59.78532 21.323732zM1018.963646 480.301855c0 20.701314-34.936141 19.000357-101.178446 19.000357-66.247057 0-101.881636 1.700957-101.881636-19.000357 0-12.101503 57.927571-26.246055 93.63817-26.246055 39.373834-0.004751 109.421912 18.221148 109.421912 26.246055z" fill="#85B385" /><path d="M650.535363 480.373124h367.045662v18.910083h-367.045662z" fill="#85B385" /><path d="M1017.581025 257.419444h-318.183528c-26.132024 0-47.512771-11.327045-47.512771-25.172266s21.380747-25.172266 47.512771-25.172267h318.183528" fill="#FFFFFF" /><path d="M0 127.571791h286.378478c26.132024 0 47.512771 10.733135 47.512772 23.851411 0 13.118276-21.380747 23.851411-47.512772 23.851412H0" fill="#FFFFFF" /><path d="M474.343753 317.047972c0 13.845222-21.380747 25.172266-47.512771 25.172266H254.207581c-26.132024 0-47.512771-11.327045-47.512772-25.172266s21.380747-25.172266 47.512772-25.172266h172.623401c26.132024-0.004751 47.512771 11.322293 47.512771 25.172266z" fill="#FFFFFF" /><path d="M0 544.025984h1017.581025v56.559203H0z" fill="#F2D9A6" /></svg>